<svg height="512" viewBox="0 0 64 64" width="512" xmlns="http://www.w3.org/2000/svg"><g id="outline"><path d="m13 58h8a1 1 0 0 0 1-1v-1h1.808l4.821 1.929a1 1 0 0 0 .371.071h3v3a1 1 0 0 0 1 1h6a1 1 0 0 0 1-1v-3.184a2.959 2.959 0 0 0 1.6-4.287 2.971 2.971 0 0 0 .62-4.529 2.931 2.931 0 0 0 .379-3.471 2.994 2.994 0 0 0 -1.599-5.529h-1.061l-.913-14.612 2.681-2.681a1 1 0 0 0 -.507-1.687l-.641-.129a10 10 0 1 0 -9.11 0l-.641.129a1 1 0 0 0 -.511 1.687l2.681 2.681-.667 10.612h-1.311a1 1 0 0 0 -.8.4l-2.858 3.811-3.578 1.789h-1.764v-1a1 1 0 0 0 -1-1h-8a1 1 0 0 0 -1 1v16a1 1 0 0 0 1 1zm25 2h-4v-2h4zm-10-48a8 8 0 1 1 8 8 8.009 8.009 0 0 1 -8-8zm9.311 18 .625 10h-3.872l.184-2.938.441-7.062zm-2.5-2 .125-2h2.122l.125 2zm2.772-4h-3.169l-1.386-1.386 2.972-.594 2.972.594zm-15.583 20h2a1 1 0 0 0 .447-.1l4-2a1.008 1.008 0 0 0 .353-.3l2.7-3.6h.686l-.186 2.938a1 1 0 0 0 1 1.062h8a1 1 0 0 1 0 2h-9v2h8a1 1 0 0 1 0 2h-8v2h8a1 1 0 0 1 0 2h-8v2h7a1 1 0 0 1 0 2h-9.808l-4.821-1.929a1 1 0 0 0 -.371-.071h-2zm-8-2h6v14h-6z"/><path d="m16 44h2v2h-2z"/><path d="m16 48h2v2h-2z"/><path d="m16 52h2v2h-2z"/><path d="m39.553 17.9a1 1 0 0 0 1.417-1.138l-.863-3.45 2.6-2.6a1 1 0 0 0 -.465-1.677l-3.554-.888-1.788-3.594a1.042 1.042 0 0 0 -1.79 0l-1.798 3.589-3.554.888a1 1 0 0 0 -.465 1.677l2.6 2.6-.863 3.45a1 1 0 0 0 1.417 1.143l3.553-1.782zm-6.053-2.767.473-1.89a1 1 0 0 0 -.263-.95l-1.751-1.751 2.286-.572a1 1 0 0 0 .653-.523l1.102-2.211 1.1 2.211a1 1 0 0 0 .653.523l2.286.572-1.751 1.751a1 1 0 0 0 -.263.95l.473 1.89-2.056-1.028a1 1 0 0 0 -.894 0z"/><path d="m47 18h2v2h-2z"/><path d="m47 22h2v2h-2z"/><path d="m45 20h2v2h-2z"/><path d="m49 20h2v2h-2z"/><path d="m21 3h2v2h-2z"/><path d="m21 7h2v2h-2z"/><path d="m19 5h2v2h-2z"/><path d="m23 5h2v2h-2z"/><path d="m26 26h2v2h-2z"/><path d="m26 30h2v2h-2z"/><path d="m24 28h2v2h-2z"/><path d="m28 28h2v2h-2z"/></g></svg>